<?xml version="1.0" standalone="no"?>
<!DOCTYPE svg PUBLIC "-//W3C//DTD SVG 20010904//EN"
 "http://www.w3.org/TR/2001/REC-SVG-20010904/DTD/svg10.dtd">
<svg version="1.0" xmlns="http://www.w3.org/2000/svg"
 width="1280.000000pt" height="1066.000000pt" viewBox="0 0 1280.000000 1066.000000"
 preserveAspectRatio="xMidYMid meet">
<metadata>
Created by potrace 1.15, written by Peter Selinger 2001-2017
</metadata>
<g transform="translate(0.000000,1066.000000) scale(0.100000,-0.100000)"
fill="#fff" stroke="none">
<path d="M8423 10646 c-23 -8 -62 -25 -85 -39 -24 -14 -623 -606 -1333 -1316
l-1290 -1291 -855 853 c-911 910 -875 877 -969 877 -69 0 -145 -51 -182 -122
-23 -45 -25 -125 -4 -176 11 -26 254 -275 808 -830 l792 -792 -2215 0 c-1431
0 -2244 -4 -2296 -10 -115 -15 -187 -35 -282 -80 -101 -48 -155 -85 -236 -161
-114 -106 -200 -251 -248 -415 l-23 -79 -3 -3120 c-2 -3432 -6 -3207 58 -3373
48 -124 98 -200 200 -303 103 -104 188 -161 314 -210 165 -64 -304 -59 5826
-59 6130 0 5661 -5 5826 59 122 48 212 107 310 205 98 98 157 188 205 310 63
162 59 -54 59 3335 -1 2535 -3 3099 -14 3161 -62 345 -310 613 -655 709 l-96
26 -2960 3 -2960 2 1247 1248 c1025 1025 1251 1257 1274 1302 37 72 41 182 8
226 -50 67 -131 89 -221 60z m577 -3740 c258 -42 485 -178 646 -388 95 -123
172 -306 194 -463 8 -57 10 -678 8 -2200 l-3 -2120 -23 -85 c-13 -47 -44 -130
-71 -185 -132 -276 -360 -464 -662 -547 l-84 -23 -3640 0 -3640 0 -82 22
c-189 50 -325 127 -458 258 -189 185 -281 383 -305 650 -13 149 -13 4012 0
4161 42 470 374 836 833 919 110 20 7165 21 7287 1z m2349 -1711 c205 -49 384
-229 431 -434 17 -71 17 -192 1 -261 -49 -209 -218 -382 -426 -435 -76 -19
-214 -19 -289 0 -152 40 -302 159 -369 295 -138 275 -52 594 204 760 56 36
149 73 209 83 59 10 180 6 239 -8z m-17 -1446 c162 -33 329 -162 400 -309 47
-97 62 -164 60 -275 -1 -160 -62 -295 -184 -411 -113 -107 -246 -157 -409
-156 -371 4 -642 362 -549 726 40 157 139 284 288 369 102 57 271 81 394 56z"/>
</g>
</svg>
